PathFileType	4	(X/Y/Z) rotbonepin.trc
DataRate	CameraRate	NumFrames	NumMarkers	Units	OrigDataRate	OrigDataStartFrame	OrigNumFrames
100	100	37	11	mm	100	1574	3147
Frame#	Time	gu			centelbow			EpL			centpxt8			centijc7			ij			ts			ac			ai			acc			ijc
		X1	Y1	Z1	X2	Y2	Z2	X3	Y3	Z3	X4	Y4	Z4	X5	Y5	Z5	X6	Y6	Z6	X7	Y7	Z7	X8	Y8	Z8	X9	Y9	Z9  X10	Y10	Z10  X11	Y11	Z11
1573	15.73	359.822	35.171	0.226	401.361	39.479	252.349	415.471	63.296	242.87	350.321	-167.61	-113.884	344.769	26.051	-149.771	387.432	-8.851	-145.757	272.001	11.45	-71.556	352.698	75.004	-21.977	297.697	-101.83	-15.552	352.698	75.004	-21.977	387.432	-8.851	-145.757
1574	15.74	359.825	35.214	0.18	401.314	39.495	252.311	415.474	63.28	242.831	350.291	-167.616	-113.824	344.834	26.041	-149.742	387.479	-8.881	-145.728	271.984	11.557	-71.547	352.72	75.082	-21.996	297.646	-101.727	-15.537	352.72	75.082	-21.996	387.479	-8.881	-145.728
1575	15.75	359.756	35.232	0.12	401.297	39.539	252.243	415.513	63.285	242.748	350.188	-167.635	-113.756	344.821	26.014	-149.732	387.45	-8.929	-145.722	271.95	11.592	-71.533	352.751	75.064	-22.02	297.543	-101.702	-15.51	352.751	75.064	-22.02	387.45	-8.929	-145.722
1576	15.76	359.808	35.233	0.082	401.411	39.596	252.194	415.68	63.303	242.682	350.077	-167.663	-113.748	344.76	25.982	-149.755	387.378	-8.976	-145.762	271.994	11.609	-71.528	352.873	75.007	-22.047	297.497	-101.705	-15.505	352.873	75.007	-22.047	387.378	-8.976	-145.762
1577	15.77	360.001	35.23	0.087	401.551	39.607	252.207	415.866	63.285	242.69	350.039	-167.685	-113.786	344.735	25.963	-149.779	387.35	-9.002	-145.807	272.105	11.665	-71.515	353.044	74.987	-22.035	297.524	-101.681	-15.519	353.044	74.987	-22.035	387.35	-9.002	-145.807
1578	15.78	360.165	35.226	0.127	401.548	39.553	252.275	415.906	63.208	242.767	350.052	-167.687	-113.794	344.763	25.967	-149.759	387.374	-9.004	-145.801	272.197	11.747	-71.478	353.166	75.011	-21.974	297.556	-101.63	-15.518	353.166	75.011	-21.974	387.374	-9.004	-145.801
1579	15.79	360.173	35.212	0.16	401.39	39.47	252.337	415.793	63.103	242.839	350.021	-167.67	-113.764	344.77	25.986	-149.716	387.374	-8.994	-145.769	272.212	11.801	-71.454	353.202	75.029	-21.937	297.535	-101.595	-15.515	353.202	75.029	-21.937	387.374	-8.994	-145.769
1580	15.8	360.097	35.196	0.151	401.236	39.42	252.341	415.679	63.028	242.844	349.929	-167.65	-113.769	344.714	26.008	-149.717	387.311	-8.985	-145.793	272.178	11.814	-71.478	353.197	75.017	-21.976	297.473	-101.59	-15.543	353.197	75.017	-21.976	387.311	-8.985	-145.793
1581	15.81	360.083	35.196	0.117	401.204	39.424	252.31	415.677	63.013	242.81	349.856	-167.637	-113.838	344.649	26.023	-149.776	387.241	-8.978	-145.888	272.165	11.822	-71.524	353.209	75.004	-22.037	297.439	-101.588	-15.592	353.209	75.004	-22.037	387.241	-8.978	-145.888
1582	15.82	360.16	35.203	0.105	401.26	39.427	252.301	415.749	63.005	242.801	349.844	-167.629	-113.902	344.644	26.034	-149.832	387.233	-8.974	-145.974	272.199	11.848	-71.55	353.249	75.02	-22.059	297.465	-101.568	-15.626	353.249	75.02	-22.059	387.233	-8.974	-145.974
1583	15.83	360.241	35.191	0.122	401.307	39.363	252.325	415.809	62.936	242.829	349.852	-167.624	-113.889	344.683	26.037	-149.835	387.267	-8.98	-145.985	272.242	11.874	-71.547	353.283	75.046	-22.041	297.505	-101.544	-15.627	353.283	75.046	-22.041	387.267	-8.98	-145.985
1584	15.84	360.264	35.162	0.134	401.31	39.25	252.341	415.83	62.814	242.852	349.827	-167.628	-113.825	344.697	26.027	-149.806	387.273	-8.998	-145.952	272.265	11.89	-71.529	353.301	75.064	-22.019	297.524	-101.527	-15.605	353.301	75.064	-22.019	387.273	-8.998	-145.952
1585	15.85	360.262	35.155	0.121	401.309	39.172	252.329	415.849	62.726	242.843	349.788	-167.629	-113.788	344.675	26.021	-149.796	387.248	-9.009	-145.946	272.289	11.906	-71.523	353.329	75.082	-22.021	297.548	-101.507	-15.592	353.329	75.082	-22.021	387.248	-9.009	-145.946
1586	15.86	360.282	35.192	0.092	401.344	39.179	252.298	415.895	62.725	242.813	349.781	-167.617	-113.788	344.674	26.031	-149.811	387.245	-9.003	-145.971	272.327	11.932	-71.532	353.371	75.103	-22.031	297.588	-101.485	-15.609	353.371	75.103	-22.031	387.245	-9.003	-145.971
1587	15.87	360.307	35.247	0.053	401.401	39.232	252.254	415.956	62.774	242.766	349.802	-167.606	-113.773	344.714	26.039	-149.812	387.281	-8.999	-145.975	272.354	11.96	-71.538	353.403	75.112	-22.022	297.603	-101.472	-15.639	353.403	75.112	-22.022	387.281	-8.999	-145.975
1588	15.88	360.291	35.283	0.008	401.436	39.285	252.2	415.995	62.823	242.707	349.815	-167.607	-113.726	344.756	26.037	-149.774	387.318	-9.007	-145.933	272.345	11.981	-71.538	353.403	75.106	-21.999	297.566	-101.469	-15.664	353.403	75.106	-21.999	387.318	-9.007	-145.933
1589	15.89	360.247	35.295	-0.024	401.435	39.327	252.161	416.002	62.857	242.661	349.81	-167.609	-113.67	344.773	26.036	-149.716	387.331	-9.012	-145.869	272.32	12.002	-71.533	353.381	75.103	-21.972	297.508	-101.461	-15.669	353.381	75.103	-21.972	387.331	-9.012	-145.869
1590	15.9	360.239	35.286	-0.034	401.438	39.328	252.149	416.015	62.851	242.645	349.796	-167.607	-113.631	344.774	26.04	-149.671	387.33	-9.011	-145.823	272.317	12.037	-71.514	353.372	75.128	-21.928	297.481	-101.431	-15.651	353.372	75.128	-21.928	387.33	-9.011	-145.823
1591	15.91	360.284	35.242	-0.034	401.457	39.251	252.154	416.048	62.767	242.653	349.77	-167.607	-113.624	344.78	26.04	-149.662	387.329	-9.018	-145.816	272.347	12.089	-71.478	353.394	75.172	-21.87	297.496	-101.386	-15.62	353.394	75.172	-21.87	387.329	-9.018	-145.816
1592	15.92	360.324	35.182	-0.022	401.446	39.137	252.175	416.052	62.645	242.68	349.734	-167.615	-113.638	344.794	26.034	-149.672	387.335	-9.036	-145.831	272.384	12.14	-71.44	353.43	75.214	-21.819	297.519	-101.341	-15.589	353.43	75.214	-21.819	387.335	-9.036	-145.831
1593	15.93	360.332	35.156	-0.004	401.387	39.077	252.205	416.006	62.579	242.715	349.714	-167.617	-113.647	344.806	26.036	-149.666	387.34	-9.043	-145.834	272.398	12.189	-71.419	353.456	75.25	-21.799	297.521	-101.298	-15.575	353.456	75.25	-21.799	387.34	-9.043	-145.834
1594	15.94	360.339	35.184	0.004	401.338	39.098	252.222	415.968	62.595	242.735	349.726	-167.596	-113.644	344.804	26.06	-149.644	387.34	-9.017	-145.826	272.37	12.227	-71.437	353.46	75.266	-21.841	297.48	-101.267	-15.602	353.46	75.266	-21.841	387.34	-9.017	-145.826
1595	15.95	360.373	35.245	0.004	401.354	39.165	252.224	415.995	62.655	242.736	349.737	-167.57	-113.648	344.785	26.088	-149.635	387.325	-8.986	-145.833	272.322	12.231	-71.496	353.462	75.232	-21.933	297.404	-101.275	-15.672	353.462	75.232	-21.933	387.325	-8.986	-145.833
1596	15.96	360.446	35.315	0.013	401.424	39.243	252.234	416.078	62.724	242.743	349.721	-167.578	-113.677	344.758	26.081	-149.658	387.3	-8.993	-145.87	272.313	12.22	-71.547	353.498	75.175	-21.999	297.352	-101.305	-15.743	353.498	75.175	-21.999	387.3	-8.993	-145.87
1597	15.97	360.548	35.37	0.041	401.488	39.296	252.268	416.157	62.767	242.777	349.711	-167.601	-113.719	344.743	26.06	-149.689	387.285	-9.015	-145.912	272.36	12.241	-71.548	353.561	75.159	-21.981	297.356	-101.303	-15.763	353.561	75.159	-21.981	387.285	-9.015	-145.912
1598	15.98	360.626	35.396	0.069	401.49	39.303	252.309	416.183	62.76	242.821	349.744	-167.573	-113.751	344.749	26.091	-149.697	387.296	-8.979	-145.927	272.416	12.289	-71.509	353.615	75.184	-21.91	297.373	-101.267	-15.731	353.615	75.184	-21.91	387.296	-8.979	-145.927
1599	15.99	360.633	35.403	0.075	401.426	39.309	252.326	416.145	62.75	242.839	349.8	-167.486	-113.755	344.761	26.181	-149.68	387.316	-8.88	-145.914	272.453	12.325	-71.473	353.659	75.193	-21.852	297.352	-101.238	-15.684	353.659	75.193	-21.852	387.316	-8.88	-145.914
1600	16	360.596	35.389	0.072	401.319	39.346	252.333	416.07	62.765	242.842	349.831	-167.416	-113.723	344.765	26.249	-149.656	387.325	-8.806	-145.888	272.477	12.344	-71.469	353.718	75.166	-21.847	297.298	-101.229	-15.664	353.718	75.166	-21.847	387.325	-8.806	-145.888
1601	16.01	360.599	35.336	0.089	401.205	39.346	252.369	415.996	62.739	242.874	349.834	-167.409	-113.682	344.767	26.252	-149.637	387.326	-8.802	-145.866	272.507	12.378	-71.503	353.793	75.146	-21.886	297.251	-101.209	-15.691	353.793	75.146	-21.886	387.326	-8.802	-145.866
1602	16.02	360.674	35.274	0.12	401.106	39.286	252.428	415.942	62.651	242.937	349.825	-167.424	-113.677	344.767	26.238	-149.629	387.325	-8.818	-145.857	272.55	12.434	-71.55	353.859	75.161	-21.918	297.236	-101.169	-15.747	353.859	75.161	-21.918	387.325	-8.818	-145.857
1603	16.03	360.742	35.272	0.134	401.008	39.253	252.469	415.884	62.596	242.985	349.798	-167.415	-113.701	344.758	26.252	-149.629	387.313	-8.808	-145.859	272.59	12.495	-71.568	353.895	75.195	-21.894	297.231	-101.124	-15.778	353.895	75.195	-21.894	387.313	-8.808	-145.859
1604	16.04	360.707	35.333	0.118	400.889	39.295	252.466	415.798	62.618	242.985	349.754	-167.404	-113.712	344.741	26.264	-149.635	387.291	-8.801	-145.864	272.62	12.553	-71.554	353.921	75.227	-21.842	297.217	-101.08	-15.773	353.921	75.227	-21.842	387.291	-8.801	-145.864
1605	16.05	360.619	35.389	0.103	400.778	39.348	252.455	415.722	62.648	242.971	349.736	-167.428	-113.688	344.744	26.236	-149.636	387.29	-8.834	-145.865	272.64	12.602	-71.553	353.953	75.255	-21.836	297.206	-101.039	-15.773	353.953	75.255	-21.836	387.29	-8.834	-145.865
1606	16.06	360.624	35.403	0.134	400.697	39.339	252.5	415.68	62.615	243.018	349.776	-167.46	-113.648	344.782	26.199	-149.624	387.328	-8.871	-145.854	272.646	12.626	-71.581	353.976	75.269	-21.879	297.201	-101.015	-15.798	353.976	75.269	-21.879	387.328	-8.871	-145.854
1607	16.07	360.744	35.404	0.191	400.607	39.272	252.592	415.627	62.529	243.124	349.823	-167.461	-113.61	344.817	26.196	-149.599	387.365	-8.872	-145.828	272.643	12.634	-71.617	353.982	75.265	-21.913	297.182	-101.011	-15.836	353.982	75.265	-21.913	387.365	-8.872	-145.828
1608	16.08	360.861	35.414	0.216	400.479	39.215	252.656	415.532	62.458	243.205	349.82	-167.438	-113.591	344.813	26.218	-149.585	387.361	-8.849	-145.813	272.643	12.656	-71.644	353.982	75.261	-21.907	297.14	-101.003	-15.872	353.982	75.261	-21.907	387.361	-8.849	-145.813
1609	16.09	360.895	35.426	0.189	400.358	39.239	252.653	415.44	62.465	243.207	349.784	-167.41	-113.602	344.789	26.244	-149.601	387.335	-8.826	-145.831	272.65	12.708	-71.663	353.992	75.276	-21.886	297.088	-100.97	-15.903	353.992	75.276	-21.886	387.335	-8.826	-145.831
